<svg width="78" height="52" viewBox="0 0 78 52" fill="none" xmlns="http://www.w3.org/2000/svg">
<g clip-path="url(#clip0_8003_131632)">
<path fill-rule="evenodd" clip-rule="evenodd" d="M10.7644 19.4443C8.86118 26.192 9.21064 35.5522 13.5853 45.0468C14.6638 47.3876 13.6405 50.1596 11.2997 51.2381C8.9589 52.3166 6.18698 51.2933 5.10845 48.9525C-0.127739 37.588 -0.767571 25.9483 1.78152 16.9107C4.24017 8.19376 10.3391 0.333008 19.5238 0.333008L19.6856 0.335814C22.4539 0.431859 24.8989 1.34584 27.025 2.73466C29.5929 1.22178 32.6499 0.333008 36.202 0.333008C41.5109 0.333008 45.4358 3.87437 48.2207 7.20137C50.5821 10.0223 52.8592 13.6148 55.0083 17.0054C55.4606 17.719 55.9073 18.4237 56.3479 19.1104C59.0185 23.2727 61.5901 26.9926 64.4197 29.6813C67.1852 32.3092 69.8207 33.5948 72.6665 33.5948C75.2439 33.5948 77.3332 35.6841 77.3332 38.2614C77.3332 40.8388 75.2439 42.9281 72.6665 42.9281C66.6083 42.9281 61.7883 40.0559 57.9906 36.4472C54.2568 32.8994 51.1573 28.3039 48.4925 24.1507C47.9758 23.3454 47.4774 22.5603 46.9932 21.7978C44.8522 18.4259 42.9904 15.4937 41.0639 13.1923C38.6283 10.2827 37.1118 9.66634 36.202 9.66634C35.3336 9.66634 34.5355 9.76241 33.8001 9.94837C36.6193 14.4101 38.6066 19.9135 39.7404 25.2283C40.9332 30.819 41.2861 36.6936 40.3605 41.4114C39.9004 43.7567 39.0517 46.1947 37.4857 48.1418C35.7947 50.2443 33.3249 51.6663 30.2644 51.6663C27.2866 51.6663 24.8597 50.2666 23.0865 48.5142C21.347 46.7951 20.0367 44.5635 19.0622 42.2462C17.1086 37.6009 16.1154 31.6816 16.2384 25.9004C16.355 20.4187 17.487 14.5613 20.2309 9.79074C19.9571 9.72115 19.6931 9.68109 19.44 9.66706C16.482 9.71751 12.7393 12.4423 10.7644 19.4443ZM27.1182 17.0609C26.1695 19.6576 25.6403 22.777 25.5696 26.0989C25.4692 30.8178 26.3075 35.3984 27.6657 38.6281C28.347 40.2483 29.0626 41.298 29.6472 41.8758C29.9154 42.1409 30.0994 42.2562 30.2027 42.3048C30.206 42.3008 30.2093 42.2967 30.2128 42.2924C30.472 41.97 30.8977 41.1648 31.2018 39.6146C31.8046 36.5418 31.6455 32.0175 30.6125 27.1757C29.8374 23.5423 28.6294 20.0101 27.1182 17.0609ZM30.1116 42.4005C30.1116 42.4005 30.1125 42.3997 30.1145 42.3983C30.1126 42.3998 30.1117 42.4005 30.1116 42.4005ZM30.3027 42.3377C30.3028 42.3387 30.2938 42.3383 30.2758 42.3333C30.2936 42.334 30.3026 42.3366 30.3027 42.3377Z" fill="white" style="fill:white;fill:white;fill-opacity:1;"/>
</g>
<defs>
<clipPath id="clip0_8003_131632">
<rect width="77.0002" height="51.3345" fill="white" style="fill:white;fill:white;fill-opacity:1;" transform="translate(0.333008 0.333008)"/>
</clipPath>
</defs>
</svg>
