<svg width="214" height="52" viewBox="0 0 214 52" fill="none" xmlns="http://www.w3.org/2000/svg">
<g clip-path="url(#clip0_8003_131612)">
<path d="M199.345 38.2553C196.929 38.2553 194.849 37.7659 193.105 36.7872C191.372 35.7982 190.036 34.4014 189.098 32.5968C188.16 30.782 187.691 28.6358 187.691 26.1582C187.691 23.7419 188.16 21.6212 189.098 19.7962C190.036 17.9712 191.357 16.5489 193.059 15.5293C194.772 14.5098 196.781 14 199.085 14C200.635 14 202.077 14.2498 203.413 14.7494C204.759 15.2388 205.931 15.9779 206.93 16.9669C207.94 17.9559 208.725 19.1998 209.286 20.6985C209.846 22.1871 210.127 23.9305 210.127 25.9289V27.7182H190.291V23.6807H203.994C203.994 22.7427 203.79 21.9118 203.382 21.1879C202.975 20.464 202.409 19.8982 201.685 19.4903C200.971 19.0723 200.14 18.8633 199.192 18.8633C198.203 18.8633 197.326 19.0927 196.562 19.5515C195.807 20.0001 195.216 20.6067 194.788 21.3714C194.359 22.1259 194.14 22.967 194.13 23.8948V27.7335C194.13 28.8958 194.344 29.9 194.772 30.7463C195.211 31.5925 195.827 32.245 196.623 32.7038C197.418 33.1626 198.361 33.392 199.452 33.392C200.176 33.392 200.839 33.2901 201.44 33.0862C202.042 32.8822 202.557 32.5764 202.985 32.1686C203.413 31.7607 203.739 31.2611 203.964 30.6698L209.989 31.0674C209.683 32.5152 209.056 33.7795 208.108 34.8602C207.17 35.9307 205.957 36.7668 204.468 37.3683C202.99 37.9597 201.282 38.2553 199.345 38.2553Z" fill="black" style="fill:black;fill:black;fill-opacity:1;"/>
<path d="M149.358 37.7965V14.3059H155.568V18.4504H155.843C156.332 17.074 157.148 15.9881 158.29 15.1929C159.432 14.3976 160.798 14 162.388 14C163.999 14 165.371 14.4027 166.502 15.2082C167.634 16.0034 168.388 17.0842 168.766 18.4504H169.01C169.49 17.1046 170.356 16.0289 171.61 15.2235C172.875 14.4078 174.368 14 176.091 14C178.283 14 180.062 14.6984 181.429 16.0952C182.805 17.4818 183.493 19.4495 183.493 21.9984V37.7965H176.994V23.2831C176.994 21.9781 176.647 20.9993 175.954 20.3468C175.26 19.6942 174.394 19.368 173.354 19.368C172.171 19.368 171.248 19.7452 170.586 20.4997C169.923 21.244 169.592 22.2278 169.592 23.4513V37.7965H163.275V23.1455C163.275 21.9933 162.944 21.0757 162.281 20.3926C161.629 19.7095 160.767 19.368 159.697 19.368C158.973 19.368 158.32 19.5515 157.739 19.9185C157.168 20.2754 156.715 20.7801 156.378 21.4326C156.042 22.0749 155.873 22.8294 155.873 23.696V37.7965H149.358Z" fill="black" style="fill:black;fill:black;fill-opacity:1;"/>
<path d="M134.696 38.2553C132.289 38.2553 130.22 37.7455 128.486 36.726C126.763 35.6962 125.438 34.2688 124.51 32.4438C123.593 30.6188 123.134 28.5185 123.134 26.143C123.134 23.7368 123.598 21.6263 124.525 19.8115C125.463 17.9865 126.794 16.5642 128.517 15.5446C130.24 14.5149 132.289 14 134.665 14C136.714 14 138.509 14.3721 140.048 15.1164C141.588 15.8607 142.806 16.9057 143.703 18.2516C144.601 19.5974 145.095 21.1777 145.187 22.9925H139.039C138.866 21.82 138.407 20.8769 137.663 20.1632C136.928 19.4394 135.965 19.0774 134.772 19.0774C133.763 19.0774 132.881 19.3527 132.126 19.9033C131.382 20.4436 130.801 21.2338 130.383 22.2737C129.965 23.3137 129.756 24.5728 129.756 26.0512C129.756 27.55 129.96 28.8244 130.368 29.8745C130.786 30.9247 131.372 31.725 132.126 32.2756C132.881 32.8262 133.763 33.1015 134.772 33.1015C135.516 33.1015 136.184 32.9485 136.775 32.6426C137.377 32.3368 137.872 31.8933 138.259 31.3121C138.657 30.7208 138.917 30.0122 139.039 29.1863H145.187C145.085 30.9808 144.596 32.5611 143.719 33.9273C142.852 35.2833 141.654 36.3437 140.125 37.1083C138.595 37.873 136.786 38.2553 134.696 38.2553Z" fill="black" style="fill:black;fill:black;fill-opacity:1;"/>
<path d="M105.8 38.24C104.301 38.24 102.965 37.98 101.793 37.4601C100.62 36.9299 99.6925 36.1499 99.0094 35.1202C98.3365 34.0802 98 32.7854 98 31.2357C98 29.9306 98.2396 28.8346 98.7188 27.9476C99.198 27.0606 99.8505 26.3469 100.676 25.8065C101.502 25.2661 102.44 24.8583 103.49 24.583C104.551 24.3078 105.662 24.114 106.824 24.0019C108.19 23.8591 109.292 23.7266 110.128 23.6043C110.964 23.4717 111.57 23.278 111.948 23.0231C112.325 22.7682 112.513 22.391 112.513 21.8914V21.7996C112.513 20.8311 112.208 20.0817 111.596 19.5515C110.994 19.0213 110.138 18.7562 109.027 18.7562C107.854 18.7562 106.921 19.0162 106.228 19.5362C105.535 20.046 105.076 20.6883 104.851 21.4632L98.8258 20.9738C99.1317 19.5464 99.7333 18.3127 100.63 17.2728C101.528 16.2226 102.685 15.4172 104.102 14.8564C105.529 14.2855 107.181 14 109.057 14C110.362 14 111.611 14.1529 112.804 14.4588C114.007 14.7647 115.073 15.2388 116 15.8811C116.938 16.5234 117.678 17.3493 118.218 18.3586C118.758 19.3578 119.028 20.5558 119.028 21.9526V37.7965H112.85V34.539H112.666C112.289 35.2731 111.784 35.9205 111.152 36.4813C110.52 37.0319 109.761 37.4652 108.874 37.7812C107.987 38.0871 106.962 38.24 105.8 38.24ZM107.665 33.7438C108.624 33.7438 109.47 33.5552 110.204 33.1779C110.938 32.7905 111.514 32.2705 111.932 31.618C112.35 30.9655 112.559 30.2263 112.559 29.4005V26.9076C112.355 27.0402 112.075 27.1625 111.718 27.2747C111.372 27.3766 110.979 27.4735 110.541 27.5652C110.102 27.6468 109.664 27.7233 109.225 27.7946C108.787 27.8558 108.389 27.9119 108.032 27.9629C107.268 28.075 106.6 28.2534 106.029 28.4981C105.458 28.7428 105.015 29.0742 104.699 29.4922C104.382 29.9 104.224 30.4098 104.224 31.0216C104.224 31.9086 104.546 32.5866 105.188 33.0556C105.84 33.5144 106.666 33.7438 107.665 33.7438Z" fill="black" style="fill:black;fill:black;fill-opacity:1;"/>
</g>
<path fill-rule="evenodd" clip-rule="evenodd" d="M15.7644 19.4443C13.8612 26.192 14.2106 35.5522 18.5853 45.0468C19.6638 47.3876 18.6405 50.1596 16.2997 51.2381C13.9589 52.3166 11.187 51.2933 10.1085 48.9525C4.87226 37.588 4.23243 25.9483 6.78152 16.9107C9.24017 8.19376 15.3391 0.333008 24.5238 0.333008L24.6856 0.335814C27.4539 0.431859 29.8989 1.34584 32.025 2.73466C34.5929 1.22178 37.6499 0.333008 41.202 0.333008C46.5109 0.333008 50.4358 3.87437 53.2207 7.20137C55.5821 10.0223 57.8592 13.6148 60.0083 17.0054C60.4606 17.719 60.9073 18.4237 61.3479 19.1104C64.0185 23.2727 66.5901 26.9926 69.4197 29.6813C72.1852 32.3092 74.8207 33.5948 77.6665 33.5948C80.2439 33.5948 82.3332 35.6841 82.3332 38.2614C82.3332 40.8388 80.2439 42.9281 77.6665 42.9281C71.6083 42.9281 66.7883 40.0559 62.9906 36.4472C59.2568 32.8994 56.1573 28.3039 53.4925 24.1507C52.9758 23.3454 52.4774 22.5603 51.9932 21.7978C49.8522 18.4259 47.9904 15.4937 46.0639 13.1923C43.6283 10.2827 42.1118 9.66634 41.202 9.66634C40.3336 9.66634 39.5355 9.76241 38.8001 9.94837C41.6193 14.4101 43.6066 19.9135 44.7404 25.2283C45.9332 30.819 46.2861 36.6936 45.3605 41.4114C44.9004 43.7567 44.0517 46.1947 42.4857 48.1418C40.7947 50.2443 38.3249 51.6663 35.2644 51.6663C32.2866 51.6663 29.8597 50.2666 28.0865 48.5142C26.347 46.7951 25.0367 44.5635 24.0622 42.2462C22.1086 37.6009 21.1154 31.6816 21.2384 25.9004C21.355 20.4187 22.487 14.5613 25.2309 9.79074C24.9571 9.72115 24.6931 9.68109 24.44 9.66706C21.482 9.71751 17.7393 12.4423 15.7644 19.4443ZM32.1182 17.0609C31.1695 19.6576 30.6403 22.777 30.5696 26.0989C30.4692 30.8178 31.3075 35.3984 32.6657 38.6281C33.347 40.2483 34.0626 41.298 34.6472 41.8758C34.9154 42.1409 35.0994 42.2562 35.2027 42.3048C35.206 42.3008 35.2093 42.2967 35.2128 42.2924C35.472 41.97 35.8977 41.1648 36.2018 39.6146C36.8046 36.5418 36.6455 32.0175 35.6125 27.1757C34.8374 23.5423 33.6294 20.0101 32.1182 17.0609ZM35.1116 42.4005C35.1116 42.4005 35.1125 42.3997 35.1145 42.3983C35.1126 42.3998 35.1117 42.4005 35.1116 42.4005ZM35.3027 42.3377C35.3028 42.3387 35.2938 42.3383 35.2758 42.3333C35.2936 42.334 35.3026 42.3366 35.3027 42.3377Z" fill="black" style="fill:black;fill:black;fill-opacity:1;"/>
<defs>
<clipPath id="clip0_8003_131612">
<rect width="112.127" height="24.2553" fill="white" style="fill:white;fill:white;fill-opacity:1;" transform="translate(98 14)"/>
</clipPath>
</defs>
</svg>
